<svg width="2000" height="2000" viewBox="0 0 2000 2000" fill="none" xmlns="http://www.w3.org/2000/svg"><rect width="2000" height="2000" rx="1000" fill="#000"/><path d="m1473.32 1053.77-83.64-81.53 53.44-52.09c23.26-22.67 31.47-55.95 21.43-86.84s-36.25-52.98-68.39-57.65l-74.88-10.88 20.09-117.11c5.71-33.31-7.73-66.34-35.06-86.19-27.34-19.87-62.9-22.44-92.82-6.71l-104.59 54.99-32.94-66.74c-14.38-29.13-43.48-47.22-75.97-47.22-32.48 0-61.59 18.1-75.96 47.22l-32.94 66.74-104.58-54.98c-12.66-6.66-26.86-10.18-41.07-10.18-18.65 0-36.55 5.84-51.75 16.89-27.34 19.87-40.78 52.9-35.06 86.2l20.08 117.1-74.88 10.88c-32.14 4.67-58.35 26.76-68.39 57.66-10.04 30.89-1.82 64.17 21.44 86.84l53.43 52.08-83.63 81.52c-24.2 23.59-32.75 58.2-22.3 90.35 10.44 32.14 37.71 55.13 71.15 59.98l116.62 16.95-12.95 75.53c-5.49 32.01 7.42 63.76 33.71 82.87 14.61 10.61 31.81 16.22 49.74 16.22 13.64 0 27.29-3.38 39.47-9.78l67.26-35.36 51.6 104.56c14.96 30.3 45.24 49.13 79.03 49.13 33.8 0 64.08-18.83 79.04-49.13l51.6-104.56 67.26 35.36c12.51 6.57 26.04 9.82 39.5 9.82 17.49 0 34.87-5.48 49.71-16.27 26.28-19.09 39.19-50.84 33.7-82.86l-12.95-75.53 116.61-16.94c33.44-4.86 60.71-27.84 71.15-59.98s1.9-66.76-22.3-90.35zm-13.36 78.76c-6 18.46-21.66 31.67-40.88 34.46l-154.69 22.48 19.46 113.46c3.06 17.85-4.14 35.54-18.79 46.18s-33.7 12.02-49.73 3.59l-101.31-53.26-68.62 139.04c-8.59 17.41-25.99 28.23-45.41 28.23s-36.81-10.82-45.41-28.23l-68.62-139.04-101.32 53.27c-6.97 3.66-14.51 5.47-22.02 5.48-9.75 0-19.43-3.06-27.71-9.07-14.65-10.64-21.85-28.34-18.78-46.18l19.46-113.46L580.9 1167c-19.21-2.79-34.88-16-40.88-34.46-6-18.47-1.09-38.36 12.81-51.91L664 972.27l-80.97-78.93c-12.96-12.64-17.54-31.18-11.95-48.4s20.2-29.53 38.12-32.14l112.95-16.41-26.59-155.03c-3.28-19.14 4.44-38.11 20.14-49.53 8.88-6.45 19.26-9.73 29.71-9.73 8.05 0 16.14 1.94 23.61 5.87l138.65 72.89 49.95-101.22c8.01-16.23 24.24-26.32 42.34-26.32 18.11 0 34.33 10.08 42.34 26.32l49.95 101.22 138.65-72.89c17.19-9.03 37.62-7.56 53.33 3.85s23.43 30.39 20.15 49.53l-26.59 155.03 112.95 16.41c17.92 2.6 32.52 14.92 38.12 32.13 5.6 17.22 1.02 35.77-11.95 48.4l-80.97 78.93 111.17 108.37c13.9 13.55 18.81 33.44 12.81 51.91z" fill="#F9DB5A"/><path d="m1141.38 827.07 74.91 10.89 8.45-49.29-74.73-10.86-33.98-68.85-44.27 23.27 34.06 69.02a47.22 47.22 0 0 0 35.55 25.83zM1000 1189.13c-7.55 0-15.09 1.81-21.97 5.42l-66.71 35.07 22.13 44.85 66.55-34.99 66.55 34.99 22.13-44.85-66.71-35.07a47.2 47.2 0 0 0-21.97-5.43zm297.56-179.44-35.81-34.91-54.97 53.58a47.2 47.2 0 0 0-13.58 41.79l12.63 73.64 49.5-7.19-12.6-73.46 54.84-53.45zM894.17 801.24l34.06-69.02-44.27-23.27-33.98 68.85-74.73 10.86 8.45 49.29 74.92-10.89a47.22 47.22 0 0 0 35.55-25.83zm-100.95 227.12-54.97-53.58-35.81 34.91 54.84 53.45-12.6 73.46 49.49 7.19 12.63-73.64a47.22 47.22 0 0 0-13.58-41.8zm513.27-177.3 71.52 10.39-50.99 49.71-26.86 26.18 35.81 34.91 80.97-78.93c12.96-12.64 17.54-31.18 11.95-48.4-5.6-17.22-20.2-29.53-38.12-32.13l-112.95-16.41-8.45 49.29zm-475.85 420.99-64.26 33.78 12.38-72.2 6.34-36.97-49.49-7.19-19.46 113.46c-3.06 17.84 4.14 35.54 18.78 46.18 8.28 6.01 17.96 9.07 27.71 9.07 7.5 0 15.05-1.81 22.02-5.48l101.32-53.27-22.13-44.85-33.2 17.46zM672.98 911.16l-50.99-49.7 71.52-10.39 37.12-5.39-8.45-49.29-112.95 16.41c-17.92 2.6-32.52 14.92-38.12 32.14-5.59 17.22-1.02 35.77 11.95 48.4l80.97 78.93 35.81-34.91-26.86-26.18zm295.59-260.67 31.43-63.67 31.43 63.67 16.6 33.64 44.27-23.27-49.95-101.21c-8.01-16.24-24.24-26.32-42.34-26.32s-34.33 10.09-42.34 26.32l-49.95 101.22 44.27 23.27 16.6-33.64zm252.67 583.14 12.38 72.2-64.26-33.78-33.2-17.45-22.13 44.85 101.31 53.26c16.02 8.42 35.08 7.05 49.73-3.59s21.84-28.34 18.79-46.18l-19.46-113.46-49.5 7.19 6.34 36.97z" fill="#5EE0E2"/><path d="m1335.97 972.25-35.81-34.91-39.85-38.84 9.06-52.83 8.45-49.29 26.59-155.03c3.28-19.14-4.44-38.11-20.15-49.53-15.71-11.41-36.14-12.89-53.33-3.85l-138.65 72.89-44.27 23.27-48.03 25.25-48.02-25.25-44.27-23.27-138.65-72.89c-7.47-3.93-15.56-5.87-23.61-5.87-10.46 0-20.84 3.28-29.71 9.73-15.71 11.41-23.43 30.39-20.14 49.53l26.59 155.03 8.45 49.29 9.06 52.83-39.85 38.84-35.81 34.91-111.17 108.36c-13.9 13.55-18.81 33.44-12.81 51.91s21.66 31.67 40.88 34.46l154.69 22.48 49.49 7.19 54.02 7.85 24.72 50.08 22.13 44.85 68.62 139.04c8.59 17.41 25.99 28.23 45.41 28.23s36.82-10.82 45.41-28.23l68.62-139.04 22.13-44.85 24.72-50.09 54.02-7.85 49.5-7.19 154.69-22.48c19.22-2.79 34.88-16 40.88-34.46 6-18.47 1.09-38.36-12.81-51.91l-111.17-108.37zm-43.52 158.96-37.12 5.39-49.5 7.19-54.21 7.88a50.63 50.63 0 0 0-38.13 27.7l-24.81 50.26-22.13 44.85-16.59 33.62-49.96 101.23-49.96-101.23-16.59-33.62-22.13-44.85-24.8-50.26a50.64 50.64 0 0 0-38.12-27.7l-54.22-7.88-49.49-7.19-37.12-5.39-112.94-16.41 80.98-78.93 26.85-26.17 35.81-34.91 39.99-38.98a50.62 50.62 0 0 0 14.56-44.82l-9.09-53.02-8.45-49.29-6.34-36.99-19.46-113.44 101.31 53.26L884 708.97l44.27 23.27 48.2 25.34a50.6 50.6 0 0 0 23.56 5.82c8.09 0 16.19-1.94 23.57-5.82l48.2-25.34 44.27-23.27 33.21-17.46 101.3-53.26-19.46 113.44-6.34 36.99-8.45 49.29-9.09 53.02a50.67 50.67 0 0 0 14.56 44.82l39.99 38.98 35.81 34.91 26.85 26.17 80.98 78.93-112.94 16.41z" fill="#03C1C9"/></svg>