<svg width="686" height="475" viewBox="0 0 686 475" fill="none" xmlns="http://www.w3.org/2000/svg">
<path d="M77.1988 249.395C77.1988 249.395 79.3288 247.608 83.5887 244.032C87.8487 240.457 93.6497 235.686 100.992 229.718C108.334 223.751 119.427 215.153 134.271 203.923C149.114 192.693 164.341 181.198 179.952 169.438C195.563 157.678 210.699 146.238 225.36 135.118C240.021 123.997 253.621 113.703 266.159 104.234C278.697 94.7657 288.983 87.0372 297.016 81.0489C305.049 75.0605 311.433 70.2731 316.169 66.6866C320.904 63.1002 325.852 59.5588 331.014 56.0624C336.176 52.5661 338.757 50.8179 338.757 50.818C339.151 50.5511 339.636 50.4517 340.104 50.5416C340.572 50.6315 340.985 50.9033 341.253 51.2975C341.521 51.6917 341.622 52.176 341.533 52.6443C341.444 53.1125 341.173 53.5264 340.779 53.7952C340.78 53.7953 338.231 55.5324 333.133 59.0066C328.035 62.4809 323.123 66.0249 318.396 69.6388C313.669 73.2526 307.303 78.0662 299.298 84.0793C291.293 90.0924 281.038 97.8524 268.533 107.359C256.028 116.866 242.464 127.208 227.841 138.386C213.218 149.563 198.132 161.068 182.581 172.899C167.03 184.731 151.896 196.291 137.18 207.58C122.463 218.869 111.505 227.546 104.305 233.611C97.1049 239.676 91.4462 244.578 87.3286 248.316C83.2111 252.054 81.1522 253.924 81.152 253.924C80.551 254.444 79.7683 254.705 78.9754 254.649C78.1825 254.593 77.4439 254.226 76.9212 253.627C76.3985 253.029 76.1342 252.247 76.1862 251.454C76.2383 250.661 76.6024 249.921 77.1988 249.395ZM340.962 53.6528C340.962 53.6528 339.003 55.3774 335.085 58.8266C331.166 62.2758 327.716 65.6146 324.735 68.843C321.753 72.0713 318.161 76.0708 313.958 80.8413C309.755 85.6119 304.809 91.5675 299.118 98.7082C293.428 105.849 288.247 112.518 283.576 118.716C278.905 124.914 274.917 130.381 271.612 135.117C268.307 139.853 265.52 143.88 263.249 147.2C260.978 150.519 259.211 152.958 257.948 154.518C256.685 156.077 257.889 156.603 261.561 156.096C265.233 155.59 270.391 153.913 277.035 151.068C283.679 148.222 293.341 143.592 306.021 137.178C318.701 130.764 330.755 124.454 342.182 118.246C353.609 112.038 363.773 106.44 372.673 101.452C381.573 96.4643 389.21 92.0961 395.586 88.3476C401.961 84.599 406.934 82.067 410.505 80.7516C414.076 79.4362 414.626 79.3361 412.155 80.4513C409.684 81.5665 405.458 83.9814 399.478 87.6961C393.498 91.4107 387.937 95.1826 382.794 99.0117C377.652 102.841 373.088 106.489 369.104 109.955C365.12 113.421 362.251 116.771 360.496 120.006C358.741 123.24 358.39 126.17 359.442 128.795C360.495 131.421 363.342 133.76 367.984 135.813C372.625 137.866 380.756 139.42 392.376 140.477C403.996 141.533 415.772 142.057 427.702 142.05C439.633 142.042 450.876 141.551 461.432 140.577C471.988 139.602 481.819 138 490.926 135.771C500.032 133.541 507.593 131.332 513.608 129.144C519.623 126.957 523.833 124.627 526.236 122.155C528.64 119.684 528.914 117.035 527.059 114.21C525.204 111.385 520.963 108.927 514.336 106.837C507.71 104.747 497.207 103.954 482.827 104.458C468.447 104.962 454.298 106.365 440.38 108.666C426.462 110.968 413.768 113.747 402.298 117.003C390.828 120.259 380.749 123.738 372.063 127.44C363.377 131.141 356.491 134.208 351.407 136.639C346.323 139.07 343.271 141.16 342.251 142.91C341.232 144.66 343.654 146.632 349.517 148.824C355.381 151.016 363.114 152.85 372.717 154.326C382.319 155.802 394.07 156.676 407.969 156.949C421.867 157.221 434.515 157.198 445.912 156.879C457.309 156.56 467.294 156.112 475.867 155.535C484.439 154.957 491.865 154.427 498.144 153.944C504.422 153.461 509.419 153.054 513.133 152.724C516.847 152.394 520.923 152.032 525.361 151.638C529.8 151.244 532.019 151.047 532.019 151.047C532.472 151.01 532.922 151.153 533.27 151.446C533.618 151.739 533.835 152.158 533.876 152.611C533.916 153.064 533.775 153.515 533.485 153.864C533.194 154.214 532.777 154.435 532.324 154.478C532.324 154.478 530.105 154.675 525.666 155.069C521.227 155.463 517.144 155.826 513.417 156.157C509.69 156.487 504.681 156.895 498.391 157.379C492.101 157.864 484.647 158.395 476.03 158.974C467.413 159.553 457.378 160.003 445.926 160.322C434.474 160.642 421.723 160.659 407.672 160.373C393.622 160.087 381.672 159.172 371.823 157.629C361.973 156.086 353.811 153.935 347.335 151.175C340.859 148.414 338.343 145.447 339.787 142.272C341.23 139.096 344.574 136.228 349.818 133.665C355.063 131.103 362.096 127.947 370.917 124.198C379.738 120.449 389.947 116.932 401.544 113.647C413.142 110.362 425.974 107.561 440.04 105.245C454.107 102.928 468.518 101.545 483.274 101.094C498.03 100.644 508.97 101.652 516.093 104.118C523.216 106.584 527.761 109.491 529.729 112.839C531.697 116.186 531.234 119.713 528.339 123.419C525.445 127.125 520.9 130.112 514.703 132.38C508.507 134.649 500.772 136.912 491.498 139.171C482.225 141.43 472.257 143.05 461.595 144.032C450.933 145.014 439.582 145.507 427.543 145.513C415.503 145.518 403.492 144.945 391.508 143.793C379.525 142.642 370.987 140.807 365.893 138.288C360.799 135.769 357.658 132.785 356.47 129.336C355.281 125.887 355.696 122.226 357.713 118.353C359.73 114.48 362.77 110.765 366.834 107.209C370.898 103.653 375.538 99.9233 380.754 96.0209C385.97 92.1186 391.661 88.2489 397.827 84.4117C403.993 80.5746 408.658 78.1062 411.821 77.0065C414.984 75.9068 416.948 75.6331 417.713 76.1852C418.478 76.7374 416.87 78.4671 412.89 81.3745C408.91 84.2818 403.724 87.6184 397.331 91.3842C390.937 95.1501 383.286 99.5344 374.377 104.537C365.467 109.54 355.287 115.159 343.834 121.393C332.382 127.627 320.284 133.975 307.542 140.436C294.8 146.897 285.019 151.592 278.2 154.519C271.382 157.447 266.02 159.337 262.114 160.19C258.209 161.043 255.739 160.758 254.706 159.336C253.672 157.914 253.794 156.04 255.071 153.714C256.348 151.389 258.124 148.561 260.399 145.231C262.674 141.902 265.476 137.851 268.802 133.08C272.129 128.308 276.136 122.81 280.824 116.585C285.511 110.359 290.716 103.653 296.439 96.4647C302.162 89.2769 307.131 83.2848 311.348 78.4885C315.564 73.6923 319.116 69.7282 322.005 66.5964C324.893 63.4646 328.377 60.0756 332.456 56.4295C336.534 52.7833 338.574 50.9603 338.574 50.9604C338.931 50.6436 339.399 50.4816 339.875 50.5101C340.352 50.5386 340.797 50.7551 341.114 51.1122C341.431 51.4692 341.593 51.9375 341.565 52.4139C341.536 52.8904 341.319 53.336 340.962 53.6528Z" fill="#F2F2F2"/>
<path d="M3.16853 313.613C3.16853 313.613 4.33914 313.306 6.68035 312.692C9.02156 312.078 12.5055 311.303 17.1321 310.368C21.7587 309.433 28.0165 308.184 35.9056 306.621C43.7946 305.058 55.3084 302.997 70.447 300.438C85.5855 297.879 102.014 295.167 119.731 292.302C137.449 289.437 159.732 286.165 186.581 282.488C213.43 278.81 240.279 275.432 267.128 272.353C293.977 269.274 320.258 266.643 345.971 264.46C371.683 262.276 398.82 259.917 427.379 257.382C455.939 254.847 481.341 252.587 503.584 250.602C525.828 248.617 545.345 246.816 562.134 245.198C578.924 243.581 594.095 242.029 607.648 240.543C621.201 239.057 632.197 237.76 640.635 236.652C649.072 235.544 658.331 234.328 668.412 233.003C678.493 231.679 683.534 231.017 683.533 231.017C683.989 230.958 684.45 231.082 684.814 231.362C685.179 231.642 685.417 232.056 685.477 232.511C685.537 232.967 685.414 233.428 685.134 233.793C684.855 234.158 684.442 234.397 683.986 234.458C683.986 234.458 678.946 235.122 668.866 236.45C658.786 237.778 649.515 239 641.053 240.115C632.59 241.231 621.576 242.535 608.008 244.03C594.44 245.524 579.258 247.084 562.461 248.711C545.664 250.338 526.144 252.15 503.901 254.148C481.658 256.145 456.255 258.42 427.692 260.972C399.129 263.524 372.011 265.901 346.337 268.104C320.662 270.308 294.417 272.962 267.599 276.069C240.781 279.176 213.967 282.587 187.157 286.303C160.346 290.02 138.092 293.339 120.395 296.261C102.698 299.182 86.3095 301.959 71.2309 304.589C56.1523 307.22 44.6885 309.368 36.8396 311.034C28.9906 312.7 22.836 314.055 18.3757 315.098C13.9155 316.141 10.543 317.062 8.25815 317.86C5.97331 318.659 4.83109 319.058 4.83148 319.058C4.10948 319.279 3.32946 319.203 2.663 318.849C1.99654 318.494 1.49824 317.889 1.27772 317.167C1.0572 316.445 1.13253 315.665 1.48712 314.999C1.84172 314.332 2.44654 313.834 3.16853 313.613Z" fill="#F2F2F2"/>
</svg>
